<svg xmlns="http://www.w3.org/2000/svg" viewBox="0 0 600 360" font-family="-apple-system,Segoe UI,sans-serif">
  <rect width="600" height="360" fill="#ffffff"/>
  <!-- tool window -->
  <rect x="20" y="20" width="560" height="300" rx="14" fill="#ffffff" stroke="#c6cbd4" stroke-width="2.5"/>
  <rect x="20" y="20" width="560" height="46" rx="14" fill="#f2f4f7"/>
  <rect x="20" y="52" width="560" height="14" fill="#f2f4f7"/>
  <text x="300" y="50" font-size="22" font-weight="800" fill="#2b3137" text-anchor="middle">AIBAT</text>
  <!-- three goal colors strip (from the workflow figure) -->
  <rect x="40" y="34" width="26" height="10" rx="5" fill="#b7e6c3"/>
  <rect x="72" y="34" width="26" height="10" rx="5" fill="#fbd489"/>
  <rect x="104" y="34" width="26" height="10" rx="5" fill="#cdc9f2"/>
  <!-- left panel: Where You and AI (Dis)Agree bars -->
  <rect x="38" y="82" width="170" height="220" rx="10" fill="#fafbfc" stroke="#e4e7ec" stroke-width="2"/>
  <text x="123" y="108" font-size="14" font-weight="700" fill="#3f464d" text-anchor="middle">Where You and AI</text>
  <text x="123" y="125" font-size="14" font-weight="700" fill="#3f464d" text-anchor="middle">(Dis)Agree</text>
  <g>
    <rect x="56" y="146" width="86" height="16" rx="4" fill="#4caf50"/><rect x="142" y="146" width="30" height="16" rx="4" fill="#e5534b"/>
    <rect x="56" y="172" width="60" height="16" rx="4" fill="#4caf50"/><rect x="116" y="172" width="52" height="16" rx="4" fill="#e5534b"/>
    <rect x="56" y="198" width="100" height="16" rx="4" fill="#4caf50"/><rect x="156" y="198" width="18" height="16" rx="4" fill="#e5534b"/>
    <rect x="56" y="224" width="44" height="16" rx="4" fill="#4caf50"/><rect x="100" y="224" width="66" height="16" rx="4" fill="#e5534b"/>
  </g>
  <rect x="56" y="258" width="14" height="10" rx="3" fill="#4caf50"/><text x="76" y="268" font-size="11" fill="#6a737c">match</text>
  <rect x="120" y="258" width="14" height="10" rx="3" fill="#e5534b"/><text x="140" y="268" font-size="11" fill="#6a737c">differ</text>
  <!-- right: statement rows with AI vs teacher chips -->
  <g font-size="12" fill="#6a737c">
    <text x="255" y="100" font-size="12" font-weight="700" fill="#9aa2aa">STATEMENTS</text>
    <text x="440" y="100" font-size="12" font-weight="700" fill="#9aa2aa">AI</text>
    <text x="505" y="100" font-size="12" font-weight="700" fill="#9aa2aa">YOU</text>
  </g>
  <g>
    <rect x="232" y="112" width="185" height="30" rx="7" fill="#f6f7fb"/>
    <rect x="428" y="115" width="58" height="24" rx="12" fill="#e6f4ea" stroke="#4caf50"/><text x="457" y="131" font-size="11" font-weight="700" fill="#2e7d32" text-anchor="middle">Accept</text>
    <rect x="496" y="115" width="58" height="24" rx="12" fill="#e6f4ea" stroke="#4caf50"/><text x="525" y="131" font-size="11" font-weight="700" fill="#2e7d32" text-anchor="middle">Accept</text>

    <rect x="232" y="152" width="185" height="30" rx="7" fill="#f6f7fb"/>
    <rect x="428" y="155" width="58" height="24" rx="12" fill="#e6f4ea" stroke="#4caf50"/><text x="457" y="171" font-size="11" font-weight="700" fill="#2e7d32" text-anchor="middle">Accept</text>
    <rect x="496" y="155" width="58" height="24" rx="12" fill="#fdecea" stroke="#e5534b"/><text x="525" y="171" font-size="11" font-weight="700" fill="#b3352e" text-anchor="middle">Reject</text>

    <rect x="232" y="192" width="185" height="30" rx="7" fill="#f6f7fb"/>
    <rect x="428" y="195" width="58" height="24" rx="12" fill="#fdecea" stroke="#e5534b"/><text x="457" y="211" font-size="11" font-weight="700" fill="#b3352e" text-anchor="middle">Reject</text>
    <rect x="496" y="195" width="58" height="24" rx="12" fill="#fdecea" stroke="#e5534b"/><text x="525" y="211" font-size="11" font-weight="700" fill="#b3352e" text-anchor="middle">Reject</text>

    <rect x="232" y="232" width="185" height="30" rx="7" fill="#f6f7fb"/>
    <rect x="428" y="235" width="58" height="24" rx="12" fill="#e6f4ea" stroke="#4caf50"/><text x="457" y="251" font-size="11" font-weight="700" fill="#2e7d32" text-anchor="middle">Accept</text>
    <rect x="496" y="235" width="58" height="24" rx="12" fill="#e6f4ea" stroke="#4caf50"/><text x="525" y="251" font-size="11" font-weight="700" fill="#2e7d32" text-anchor="middle">Accept</text>
  </g>
  <!-- faux statement text lines -->
  <g fill="#d4d8df">
    <rect x="242" y="122" width="150" height="9" rx="4.5"/>
    <rect x="242" y="162" width="130" height="9" rx="4.5"/>
    <rect x="242" y="202" width="150" height="9" rx="4.5"/>
    <rect x="242" y="242" width="118" height="9" rx="4.5"/>
  </g>
  <text x="300" y="345" font-size="14" font-weight="700" fill="#3f464d" text-anchor="middle">TEACHER-DRIVEN CONTEXTUAL EVALUATION</text>
</svg>
