<svg xmlns="http://www.w3.org/2000/svg" viewBox="0 0 600 360" font-family="Inter,-apple-system,Segoe UI,sans-serif">
  <rect width="600" height="360" fill="#ffffff"/>
  <!-- tool window -->
  <rect x="120" y="45" width="440" height="270" rx="14" fill="#ffffff" stroke="#c9c0ee" stroke-width="2.5"/>
  <rect x="120" y="45" width="440" height="42" rx="14" fill="#f0edfb"/>
  <circle cx="146" cy="66" r="6" fill="#e8a09a"/><circle cx="166" cy="66" r="6" fill="#f0d492"/><circle cx="186" cy="66" r="6" fill="#9ccdb0"/>
  <text x="340" y="72" font-size="15" font-weight="800" fill="#4b4370" text-anchor="middle">AIBAT</text>
  <!-- LLM output rows with teacher judgments -->
  <g font-size="12" fill="#5a6270">
    <rect x="145" y="108" width="290" height="34" rx="8" fill="#f6f7fb"/><text x="160" y="129">LLM feedback on essay 1</text>
    <rect x="145" y="152" width="290" height="34" rx="8" fill="#f6f7fb"/><text x="160" y="173">LLM feedback on essay 2</text>
    <rect x="145" y="196" width="290" height="34" rx="8" fill="#f6f7fb"/><text x="160" y="217">LLM feedback on essay 3</text>
    <rect x="145" y="240" width="290" height="34" rx="8" fill="#f6f7fb"/><text x="160" y="261">LLM feedback on essay 4</text>
  </g>
  <g font-weight="800" font-size="16" text-anchor="middle">
    <circle cx="465" cy="125" r="13" fill="#9ccdb0"/><path d="M 459 125 L 463 130 L 472 120" stroke="#fff" stroke-width="3" fill="none" stroke-linecap="round"/>
    <circle cx="465" cy="169" r="13" fill="#e8a09a"/><path d="M 460 164 L 470 174 M 470 164 L 460 174" stroke="#fff" stroke-width="3" stroke-linecap="round"/>
    <circle cx="465" cy="213" r="13" fill="#9ccdb0"/><path d="M 459 213 L 463 218 L 472 208" stroke="#fff" stroke-width="3" fill="none" stroke-linecap="round"/>
    <circle cx="465" cy="257" r="13" fill="#f0d492"/><text x="465" y="262" font-size="14" fill="#8a7420">?</text>
  </g>
  <text x="505" y="130" font-size="11" fill="#9aa2aa">teacher</text>
  <text x="505" y="143" font-size="11" fill="#9aa2aa">judgment</text>
  <!-- teacher -->
  <circle cx="55" cy="160" r="22" fill="#9ccdb0"/>
  <path d="M 55 182 Q 27 196 27 240 L 83 240 Q 83 196 55 182 Z" fill="#9ccdb0"/>
  <path d="M 92 180 L 112 180" stroke="#9aa2aa" stroke-width="3" marker-end="url(#a)"/>
  <defs><marker id="a" markerWidth="10" markerHeight="10" refX="8" refY="4" orient="auto"><path d="M0,0 L8,4 L0,8 Z" fill="#9aa2aa"/></marker></defs>
  <text x="340" y="342" font-size="13" font-weight="700" fill="#4b4370" text-anchor="middle">TEACHER-DRIVEN CONTEXTUAL EVALUATION</text>
</svg>
